<?xml version="1.0" encoding="utf-8"?>
<!-- Uploaded to: SVG Repo, www.svgrepo.com, Generator: SVG Repo Mixer Tools -->
<svg width="800px" height="800px" viewBox="0 -9.79 306.525 306.525" xmlns="http://www.w3.org/2000/svg"><defs><style>.a{fill:#ffffff;}.b{fill:#f3736f;}.c{fill:#211715;}.d{fill:#f8b8b4;}.e{fill:#fbdbd9;}</style></defs><path class="a" d="M304.418,205.362c-.017-11.951-.077-36.41-.077-45.1,0,0,0-.121.006-.356-53.9-31.009-135.061-77.919-171.922-99.254C101.212,78.707,38.394,115.005,2.052,135.882c0,10.138.074,40.174.068,49.085,33.15,19.195,119.957,69.372,173.325,100.059,37.885-21.779,99.829-57.576,128.978-74.448v-.459C304.423,208.956,304.421,207.328,304.418,205.362Z"/><path class="b" d="M131.706,61.064C100.37,79.193,38.567,114.9,2.445,135.656c27.372,15.854,126.347,73.072,172.227,99.385,33.5-19.2,106.859-61.578,129.669-74.783,0,0,0-.121.006-.356-53.9-31.009-135.061-77.919-171.922-99.254Z"/><path class="c" d="M306.418,205.362q-.017-12.1-.046-24.2c-.014-7.08-.18-14.18-.025-21.259a2,2,0,0,0-.99-1.727q-35.7-20.54-71.365-41.138-35.376-20.419-70.736-40.865-14.913-8.622-29.822-17.251a2.022,2.022,0,0,0-2.019,0Q107.654,72.669,83.881,86.4q-27.843,16.083-55.7,32.14-13.564,7.817-27.137,15.616a2.013,2.013,0,0,0-.99,1.727q0,17.326.052,34.652.008,4.276.013,8.554a38.655,38.655,0,0,0,.039,6.145c.23,1.363,1.723,1.906,2.8,2.532L5.7,189.349l6.032,3.491Q26.9,201.62,42.08,210.393q18.662,10.788,37.328,21.569Q99.25,243.421,119.1,254.87q19.078,11.007,38.164,22c5.65,3.253,11.22,6.806,17.015,9.791,1.709.88,3.314-.559,4.778-1.4l4.2-2.413q4.42-2.544,8.84-5.089,19.689-11.337,39.363-22.7,19.755-11.4,39.5-22.816,16.167-9.344,32.33-18.7c1.141-.66,2.865-1.266,3.1-2.705a34.233,34.233,0,0,0,.031-5.482c0-2.574-4-2.578-4,0q0,2.609,0,5.216l.99-1.727q-22.851,13.227-45.715,26.433-27.7,16-55.409,31.979-13.923,8.025-27.854,16.036h2.019q-36.443-20.955-72.843-41.982Q67.646,220.557,31.7,199.768,17.411,191.508,3.13,183.24l.99,1.727c.008-13.314-.041-26.628-.06-39.941q-.007-4.572-.008-9.144l-.991,1.727q25.616-14.715,51.2-29.489Q81.6,92.343,108.934,76.543q12.252-7.082,24.5-14.168h-2.019q29.592,17.129,59.2,34.23,37.073,21.421,74.163,42.811,19.275,11.115,38.561,22.213l-.991-1.727c-.155,7.079.011,14.179.025,21.259q.024,12.1.046,24.2C302.422,207.936,306.422,207.94,306.418,205.362Z"/><path class="c" d="M173.07,234.907q0,20.736.072,41.472.007,4.2.01,8.389c0,2.574,4,2.578,4,0,0-13.5-.05-27-.072-40.495q-.008-4.683-.01-9.366c0-2.573-4-2.578-4,0Z"/><path class="c" d="M3.431,138.53q12.11,7.017,24.226,14.022,17.038,9.857,34.083,19.7,19.348,11.179,38.7,22.349,19.039,10.986,38.085,21.96,16.109,9.279,32.23,18.536l3.306,1.9c2.236,1.282,4.254-2.173,2.018-3.454q-15.582-8.935-31.146-17.9-18.829-10.842-37.647-21.7-19.458-11.228-38.91-22.465Q50.91,161.379,33.444,151.278,20.582,143.84,7.723,136.392L5.45,135.076c-2.232-1.293-4.248,2.162-2.019,3.454Z"/><path class="c" d="M175.093,250.03q-13.441-7.707-26.865-15.444-16.377-9.43-32.745-18.877Q98.6,205.97,81.724,196.219q-15.236-8.8-30.468-17.61-11.166-6.458-22.331-12.92l-1.985-1.15c-2.232-1.293-4.248,2.163-2.019,3.454q10.509,6.087,21.023,12.166,14.86,8.594,29.723,17.181,16.79,9.7,33.584,19.392,16.566,9.561,33.138,19.108,13.9,8.01,27.822,16l2.863,1.642c2.237,1.283,4.254-2.172,2.019-3.454Z"/><path class="c" d="M164.115,259.91q-13.019-7.466-26-15c-2.232-1.293-4.248,2.163-2.019,3.454q12.987,7.521,26,15c2.237,1.283,4.254-2.172,2.019-3.454Z"/><path class="d" d="M249.423,247.989c-4.618,2.652-19.594,11.3-26.406,15.226-6.573-3.776-18.231-10.494-26.936-15.517,8.226-4.732,17.274-9.943,26.426-15.226C231.441,237.631,243.172,244.4,249.423,247.989Z"/><path class="c" d="M196.081,249.7h.01l-1.009-.273q12.546,7.254,25.113,14.475a8.033,8.033,0,0,0,2.556,1.279c1,.135,1.928-.613,2.756-1.09l4.73-2.727q5.376-3.1,10.752-6.2,4.72-2.722,9.443-5.442a2.019,2.019,0,0,0,0-3.454q-13.471-7.734-26.915-15.517c-2.234-1.289-4.25,2.166-2.019,3.454q13.452,7.767,26.915,15.517v-3.454q-13.215,7.591-26.4,15.226h2.018q-6.6-3.793-13.2-7.6-3.7-2.131-7.4-4.265l-3.672-2.12c-1.027-.593-2.463-1.809-3.677-1.809-2.574,0-2.578,4,0,4Z"/><path class="c" d="M286.81,193.024q-18.458,10.689-36.931,21.349-24.841,14.343-49.7,28.658-12.856,7.4-25.721,14.785c-2.234,1.279-.221,4.737,2.019,3.454q23.758-13.6,47.456-27.311,23.481-13.538,46.948-27.1,8.974-5.189,17.947-10.382c2.227-1.289.215-4.747-2.019-3.454Z"/><path class="c" d="M175.9,236.642q26.069-14.94,52.086-29.973,28.068-16.185,56.119-32.4,10.623-6.14,21.243-12.285c2.227-1.289.215-4.747-2.019-3.454q-22.163,12.829-44.342,25.629-29.14,16.827-58.3,33.623-13.4,7.713-26.807,15.405c-2.233,1.28-.221,4.737,2.019,3.454Z"/><path class="a" d="M262.249,132.051c-.013-8.922-.058-27.182-.058-33.673,0,0,0-.09.005-.265-40.238-23.151-100.831-58.171-128.349-74.1C110.545,37.5,63.647,64.6,36.516,80.18c0,7.569.056,29.992.051,36.645,24.749,14.33,89.555,51.79,129.4,74.7,28.284-16.259,74.528-42.983,96.289-55.579V135.6C262.252,134.734,262.251,133.519,262.249,132.051Z"/><path class="d" d="M132.1,25.024C108.27,38.811,62.986,64.975,36.516,80.18c0,7.569.056,29.992.051,36.645,10.763,6.232,29.1,16.839,49.67,28.721-.015-9.132-.054-29.307-.058-36.983,41.833-24.165,77.077-44.544,96.955-56.052-19.693-11.377-37.516-21.684-49.287-28.5Z"/><path class="c" d="M264.249,132.051c-.017-11.3-.3-22.638-.053-33.938a2,2,0,0,0-.991-1.727q-26.644-15.331-53.265-30.7-26.406-15.243-52.8-30.5Q146,28.735,134.856,22.287a2.022,2.022,0,0,0-2.019,0Q115.073,32.565,97.3,42.83,76.566,54.806,55.822,66.763q-10.155,5.85-20.315,11.69a2.014,2.014,0,0,0-.991,1.727q0,13.087.04,26.174.006,3.169.009,6.337c0,1.422-.307,3.282.074,4.665.407,1.478,3.19,2.511,4.45,3.24l4.6,2.664Q68.976,137.891,94.272,152.5q29.014,16.756,58.045,33.482l6.622,3.812,3.049,1.754a24.771,24.771,0,0,0,3.205,1.807c1.32.51,2.554-.546,3.655-1.179l3.327-1.914q3.364-1.935,6.727-3.872,14.649-8.437,29.29-16.889,26.814-15.477,53.612-30.982c1.092-.633,2.346-1.125,2.448-2.571.091-1.284,0-2.608,0-3.894,0-2.574-4-2.579-4,0q0,1.947,0,3.894l.991-1.727q-17.022,9.852-34.054,19.69-20.719,11.97-41.45,23.923-10.391,5.988-20.785,11.966h2.019q-27.173-15.624-54.314-31.3-26.819-15.48-53.624-30.981Q48.3,121.308,37.577,115.1l.99,1.727c.006-9.912-.03-19.823-.045-29.734q0-3.456-.006-6.911l-.99,1.727q19.149-11,38.273-22.046,20.362-11.746,40.713-23.512,9.174-5.3,18.344-10.608h-2.019q22.086,12.783,44.184,25.548,27.671,15.989,55.355,31.954,14.4,8.3,28.81,16.6l-.99-1.727c-.248,11.3.036,22.634.053,33.938C260.253,134.624,264.253,134.629,264.249,132.051Z"/><path class="c" d="M163.684,154.108c0,8.463.06,16.927.061,25.39,0,2.574,4,2.578,4,0,0-8.463-.06-16.927-.061-25.39,0-2.574-4-2.578-4,0Z"/><path class="c" d="M167.078,152.872q-22.767-13.055-45.486-26.189Q97.081,112.54,72.583,98.373,63.3,93.008,54.028,87.637C51.8,86.344,49.78,89.8,52.009,91.091q19.355,11.21,38.723,22.393,25.449,14.7,50.913,29.378,11.7,6.741,23.414,13.464c2.237,1.282,4.254-2.173,2.019-3.454Z"/><path class="c" d="M166.56,155.841q16.453-9.43,32.875-18.918,17.652-10.179,35.295-20.377,6.756-3.9,13.509-7.812c2.228-1.289.216-4.747-2.018-3.454q-13.989,8.1-27.988,16.176-18.321,10.579-36.655,21.14-8.516,4.9-17.037,9.791c-2.233,1.279-.22,4.737,2.019,3.454Z"/><path class="c" d="M87.3,110.224q21.956-12.682,43.907-25.371,17.827-10.3,35.652-20.616,7.624-4.41,15.247-8.823c2.227-1.289.216-4.747-2.019-3.454Q165.348,60.5,150.6,69.021q-19.836,11.471-39.675,22.935L85.285,106.77c-2.229,1.287-.217,4.745,2.018,3.454Z"/><path class="c" d="M84.174,108.546c.013,11.343.061,22.686.062,34.029,0,2.573,4,2.578,4,0,0-11.343-.049-22.686-.062-34.029,0-2.574-4-2.578-4,0Z"/><path class="b" d="M147.3,109.221a15.788,15.788,0,0,1-1.6,6.165c-1.986,3.9-5.818,6.57-9.853,8.269s-4.613,1.259-8.788,2.576c-3.255,1.027-6.663,2.506-8.058,5.8a19.253,19.253,0,0,0-1.031,5.232c-.3,6.747-.246,13.766-.33,20.71a2.278,2.278,0,0,1-1.57,2.19,32.139,32.139,0,0,1-14.655.781,2.917,2.917,0,0,1-1.3-.873,3.959,3.959,0,0,1-1.1-1.831c-.376-3.152-.557-6.188-.664-9.227-3.493.775-7.485,2.115-11.2,1.209-2.583-.631-5-2.6-5.4-5.229l-.328-2.172c-.577-10.619-1.153-9.282-1.73-19.9-.194-3.574-.35-7.341,1.282-10.526a17.817,17.817,0,0,1,5.664-5.909,68.985,68.985,0,0,1,14.464-8.107S140.619,107.858,147.3,109.221Z"/><path class="a" d="M139.221,112.78c2.3-1.288,5.263-2.738,8.123-4.452,4.746-2.839,9.258-6.429,10.191-11.246a20.12,20.12,0,0,0-.03-6.287c-.913-7.372-2.657-16.783-7.251-22.847-2.8-3.712-7.22-8.5-11.53-10.709,0,0-7.477-3.62-14.741-4.093-11.662-.761-17.63,4.211-17.63,4.211a35.256,35.256,0,0,0-13.2,20.8L91.119,89.869,90.384,94.1Z"/><path class="a" d="M92.472,170.491a7.357,7.357,0,0,1,1.429-6.019,18.161,18.161,0,0,1,5.436-4.376c2.1,1.645,10.632,1.962,16.738.07a2.126,2.126,0,0,0,.583-.281c.075.713.123,1.153.123,1.153.635,5.8-2.878,8.132-5.108,9.459a33.622,33.622,0,0,1-8.5,3.579,13.916,13.916,0,0,1-5.547.543A6.448,6.448,0,0,1,93,171.77,4.982,4.982,0,0,1,92.472,170.491Z"/><path class="a" d="M74.609,157.925a8,8,0,0,1,1.143-2.134,19.28,19.28,0,0,1,5.892-4.613,9.892,9.892,0,0,1,3.808-1.581,8.174,8.174,0,0,0,1.708.628c3.715.906,7.706-.433,11.2-1.209.075,2.191.191,4.379.39,6.611l-1.569.259c.117,2.5-2.1,4.45-4.251,5.729a32.487,32.487,0,0,1-8.219,3.459,13.348,13.348,0,0,1-5.363.52,6.193,6.193,0,0,1-4.469-2.752A5.832,5.832,0,0,1,74.609,157.925Z"/><path class="c" d="M114.781,161.038a7.175,7.175,0,0,1-2.6,6.745,27.785,27.785,0,0,1-9.546,4.364c-2.774.735-8.287,1.217-8.341-3.036-.048-3.8,3.874-6,6.706-7.676,2.215-1.309.2-4.768-2.019-3.454-3.347,1.978-6.708,4.195-8.125,8a7.647,7.647,0,0,0,3.415,9.614c3.843,2.013,8.374.934,12.235-.468a28.586,28.586,0,0,0,8.717-4.684,10.7,10.7,0,0,0,3.557-9.4,2.054,2.054,0,0,0-2-2,2.015,2.015,0,0,0-2,2Z"/><path class="c" d="M84.654,147.706a16.028,16.028,0,0,0-4.947,2.3,23.931,23.931,0,0,0-4.18,3.047c-2.462,2.347-4.081,6.01-2.991,9.4,1.152,3.586,4.914,5.327,8.474,5.233,3.839-.1,7.774-1.632,11.153-3.361,3.325-1.7,7.049-4.282,7.021-8.439-.017-2.573-4.017-2.579-4,0,.02,2.938-4.316,4.709-6.5,5.69a29.45,29.45,0,0,1-4.9,1.675,8.865,8.865,0,0,1-5.219.091c-2.89-1.084-2.818-4.228-1.172-6.419a13.333,13.333,0,0,1,3.723-3.089,14.611,14.611,0,0,1,4.607-2.271c2.521-.514,1.454-4.37-1.063-3.857Z"/><path class="c" d="M100.579,96.452a70.437,70.437,0,0,0-15.936,9.056,17.462,17.462,0,0,0-5.745,6.654,20.215,20.215,0,0,0-1.288,8.816c.145,4.315.56,8.6,1.078,12.883.468,3.87.445,7.814,1.14,11.649a8.573,8.573,0,0,0,5.238,6.1c3.36,1.443,7.061.906,10.516.125,2.51-.567,1.448-4.424-1.063-3.857-3.733.844-10.033,1.5-10.863-3.615-.547-3.375-.543-6.856-.955-10.287-.432-3.6-.786-7.185-.987-10.805a26.629,26.629,0,0,1,.258-7.649,11.426,11.426,0,0,1,4.123-6.086,59.884,59.884,0,0,1,15.547-9.123,2.066,2.066,0,0,0,1.4-2.46,2.012,2.012,0,0,0-2.46-1.4Z"/><path class="c" d="M100.164,115.738c-3.427,2.382-4.287,6.117-4.349,10.043-.063,3.983.149,7.963.273,11.942.163,5.22.14,10.447.49,15.66.162,2.414-.015,5.365,1.518,7.366,1.471,1.92,3.274,2.323,5.555,2.563a32.691,32.691,0,0,0,6.583-.023,25.427,25.427,0,0,0,6.682-1.313c2.61-1.017,2.724-3.519,2.748-5.939.026-2.749.036-5.5.063-8.248.026-2.719.067-5.438.157-8.156a21.139,21.139,0,0,1,.869-6.582c1.335-3.615,6.074-4.806,9.41-5.611,4.326-1.044,8.49-2.4,12.092-5.127a17.664,17.664,0,0,0,7.089-13.985c.1-2.574-3.9-2.57-4,0a13.519,13.519,0,0,1-5.209,10.605,24.277,24.277,0,0,1-9.661,4.338c-3.565.792-7.351,1.8-10.27,4.1-3.241,2.55-4.041,6.447-4.248,10.374-.263,4.957-.232,9.935-.266,14.9q-.012,1.821-.029,3.642a6.466,6.466,0,0,1-.019,1.7c-.113.321-.066.2-.277.317a10.253,10.253,0,0,1-2.864.678,29.023,29.023,0,0,1-3.068.386,31.906,31.906,0,0,1-5.782-.046,4.814,4.814,0,0,1-1.833-.38c-.931-.554-.906-1.627-1-2.558-.458-4.709-.531-9.441-.625-14.167-.09-4.491-.319-8.978-.379-13.469-.022-1.691-.05-3.395.08-5.083.011-.14.022-.28.036-.419.041-.4-.026.122.011-.066a9.2,9.2,0,0,1,.433-1.564,5.21,5.21,0,0,1,1.805-2.414c2.1-1.459.1-4.928-2.019-3.454Z"/><path class="c" d="M105.344,55.63A37.573,37.573,0,0,0,91.227,77.62c-.535,2.511,3.32,3.584,3.857,1.064a33.434,33.434,0,0,1,12.279-19.6,2.067,2.067,0,0,0,.717-2.737,2.013,2.013,0,0,0-2.736-.717Z"/><path class="a" d="M93.073,98.376c-2.224-1.387-3.149-3.73-3.512-6.217-.407-2.789.07-6.338,4.127-7.352a5.781,5.781,0,0,1,4.225.789,7.919,7.919,0,0,1,3.891,7.683c-.274,3.305-3.391,6.335-6.673,5.856A5.31,5.31,0,0,1,93.073,98.376Z"/><path class="c" d="M94.082,96.649a4.828,4.828,0,0,1-1.2-1.091c.179.223-.08-.121-.118-.177q-.142-.215-.27-.439c-.068-.119-.133-.241-.195-.364,0,0-.247-.563-.135-.281a10.9,10.9,0,0,1-.527-1.824q-.054-.263-.1-.527c-.023-.136-.076-.62-.018-.083-.027-.253-.053-.506-.066-.76a11.069,11.069,0,0,1,.031-1.4c.028-.375,0,0-.01.067.026-.128.046-.256.075-.384.062-.281.152-.547.241-.821-.145.45.086-.166.161-.3s.481-.638.185-.309a7.128,7.128,0,0,1,.518-.525c.232-.21-.39.224.072-.053.155-.093.3-.193.464-.279.111-.059.224-.117.339-.167-.287.125.028,0,.076-.018a8.131,8.131,0,0,1,.907-.241c-.447.076.185.013.35.016s.33.012.494.03c.141.013.135.013-.017,0,.106.019.211.041.314.067a4.109,4.109,0,0,1,1.6.775c.023.016.3.225.1.064.108.084.212.173.315.262a8.939,8.939,0,0,1,.78.765,5.348,5.348,0,0,1,1.266,2.531c-.007-.033.112.588.068.309s.034.363.031.326a8.938,8.938,0,0,1,.019.926c0,.177-.014.355-.029.532.007-.088.073-.34-.01.071a8.113,8.113,0,0,1-.268.98c-.2.6.086-.151-.078.179-.09.183-.187.363-.292.538a2.522,2.522,0,0,1-.474.661,6.819,6.819,0,0,1-.729.7c.216-.178-.041.027-.077.05-.168.108-.334.217-.51.314a3.426,3.426,0,0,1-1.436.409,3.118,3.118,0,0,1-1.848-.535,2,2,0,0,0-2.019,3.454c3.7,2.2,8,.706,10.326-2.693a9.513,9.513,0,0,0-.039-10.193c-1.981-3.046-5.7-5.311-9.4-4.283a7.482,7.482,0,0,0-5.485,7.081c-.247,3.835,1.314,7.961,4.6,10.088a2,2,0,1,0,2.019-3.454Z"/><path class="c" d="M105.936,71.986V94.279c0,2.574,4,2.578,4,0V71.986c0-2.574-4-2.578-4,0Z"/><path class="a" d="M107.241,98.071c-6.151,1.043-12.429,3.443-21.5,4.948,5.591,2.695,16.106,7.871,26.161,12.9,8.737-3.558,11.224-4.178,16.692-6.274C119.446,104.925,107.259,98.068,107.241,98.071Z"/><path class="c" d="M106.71,96.143c-7.252,1.256-14.23,3.722-21.5,4.947-1.664.281-1.971,2.935-.477,3.656,5.911,2.851,11.8,5.758,17.674,8.675q2.647,1.313,5.291,2.631c.924.461,1.843.933,2.771,1.384a3.16,3.16,0,0,0,3.079-.037q4.138-1.668,8.332-3.188c2.418-.871,4.845-1.717,7.246-2.635,1.479-.565,2.138-2.8.478-3.655-4.738-2.449-9.427-4.992-14.1-7.561-2.408-1.323-4.776-2.822-7.252-4.016-2.309-1.112-4.34,2.336-2.019,3.454,2.476,1.194,4.844,2.693,7.253,4.016,4.673,2.569,9.362,5.111,14.1,7.561l.478-3.656c-5.555,2.124-11.178,4.034-16.691,6.274l1.541.2c-8.7-4.35-17.4-8.679-26.161-12.9l-.478,3.655c7.27-1.225,14.247-3.691,21.5-4.947a2.017,2.017,0,0,0,1.4-2.46A2.046,2.046,0,0,0,106.71,96.143Z"/><path class="a" d="M123.346,107.334c.59-4.78,5.592-8.766,12.015-6,.97,2.982,2.655,7.49,3.691,11.258-1.412,1.143-2.633,2.135-2.633,2.135-2.066,2.494-6.63,2.045-9.112.535A8.248,8.248,0,0,1,123.346,107.334Z"/><path class="c" d="M134.669,98.95a10.87,10.87,0,0,0-8.109.607,9.928,9.928,0,0,0-4.665,5.356c-1.98,5.2,1.152,11.056,6.246,12.921,3.117,1.142,7.38.975,9.692-1.7a2.05,2.05,0,0,0,0-2.829,2.018,2.018,0,0,0-2.828,0c-.1.111-.2.213-.3.322-.066.074-.369.315-.058.079a5.251,5.251,0,0,1-.665.406c-.1.052-.449.165-.085.043-.113.038-.223.078-.337.112a6.622,6.622,0,0,1-.88.2c.4-.063,0,0-.107,0-.155.006-.309.019-.464.022-.281,0-.56-.015-.84-.026-.1,0-.51-.051-.12,0-.123-.016-.246-.038-.368-.06a10.044,10.044,0,0,1-.984-.233c-.257-.075-.509-.164-.76-.257.386.142-.264-.128-.372-.185a6.415,6.415,0,0,1-.663-.417c-.487-.338.161.14-.106-.081-.138-.115-.274-.23-.406-.351-.192-.175-.377-.356-.555-.546-.076-.081-.151-.165-.225-.249,0,0-.343-.42-.156-.18s-.129-.183-.131-.187c-.06-.087-.119-.175-.175-.264a7.81,7.81,0,0,1-.419-.74c-.056-.113-.109-.228-.161-.342.027.06.144.4.032.063-.076-.234-.16-.462-.224-.7-.05-.186-.09-.374-.129-.563-.007-.036-.075-.5-.031-.158.043.331-.01-.163-.014-.228a10.539,10.539,0,0,1,.027-1.33c-.026.449-.011.068.033-.155a7.908,7.908,0,0,1,.2-.8c.055-.176.124-.347.182-.522.14-.425-.164.268-.012.033.06-.094.1-.211.151-.31q.142-.278.306-.541c.071-.116.549-.765.2-.333a8.379,8.379,0,0,1,.849-.918c.076-.07.556-.464.334-.294-.261.2.115-.077.139-.093.119-.078.236-.157.358-.231.2-.124.414-.238.628-.343.025-.012.46-.2.158-.077-.285.118.182-.062.24-.082a7.883,7.883,0,0,1,.788-.226c.176-.04.871-.129.375-.084a12.728,12.728,0,0,1,1.779-.017c.086,0,.392.046-.023-.012q.261.038.519.089c.359.072.712.165,1.063.27a2,2,0,0,0,1.063-3.857Z"/><path class="c" d="M140.793,84.922c-.076-.534-.03-.232,0,.079q.033.393.062.786c.053.748.093,1.5.128,2.248.075,1.642.13,3.289.091,4.932-.007.322-.017.644-.039.964-.012.187-.024.9-.022.364,0,.53-.181,0,.074-.042-.281.051-.819.626-1.112.863-2.011,1.623-3.965,3.315-5.98,4.933a1.945,1.945,0,0,0-.514,1.946c1.249,3.789,2.662,7.525,3.716,11.376a2.024,2.024,0,0,0,2.938,1.2c8.293-4.639,19.882-9.366,19.636-20.621a65.364,65.364,0,0,0-2.318-14.634,35.366,35.366,0,0,0-5.68-12.654c-3.28-4.3-7.191-8.591-12.034-11.146-2.276-1.2-4.3,2.251-2.019,3.454,3.864,2.038,7.016,5.321,9.762,8.666a30.465,30.465,0,0,1,5.578,10.824,74.952,74.952,0,0,1,2.479,12.58c.286,2.382.512,4.948-.422,7.223a13.139,13.139,0,0,1-3.494,4.572c-3.931,3.563-8.923,5.718-13.507,8.282l2.938,1.2c-1.054-3.851-2.467-7.587-3.716-11.376l-.515,1.946c2.155-1.731,4.238-3.549,6.4-5.271,1.5-1.191,1.765-2.354,1.838-4.189a53.591,53.591,0,0,0-.406-9.559,2.012,2.012,0,0,0-2.46-1.4,2.052,2.052,0,0,0-1.4,2.46Z"/><path class="a" d="M107.092,37.825a23.038,23.038,0,0,0,5.485,16.042A19.877,19.877,0,0,0,140.5,55.889a11.483,11.483,0,0,0,7.635-2.391A7.284,7.284,0,0,0,150.9,47a5.292,5.292,0,0,0-3.085-3.9,18.979,18.979,0,0,0-6.568-22.174c-8.9-6.322-21.474-5.452-28.785,2.866A22.458,22.458,0,0,0,107.092,37.825Z"/><path class="a" d="M109.989,27.3a22.731,22.731,0,0,0-2.6,7.5,38.087,38.087,0,0,0,15.638-1.884,1.078,1.078,0,0,1,.861.074c.631.355-.131,1.732-.487,2.362,2.24.631,7.725-.4,10.149-1.732,1.348,3.276,2.723,4.983,5.365,6.22l7.092,2.825a5.059,5.059,0,0,1,1.813.445,18.992,18.992,0,0,0-6.574-22.176c-8.9-6.322-21.474-5.452-28.785,2.866A20.521,20.521,0,0,0,109.989,27.3Z"/><path class="c" d="M150.058,42.788A21.144,21.144,0,0,0,143.052,19.8a24.25,24.25,0,0,0-23.614-3.307c-8.2,3.364-13.342,11.02-14.234,19.728a24.631,24.631,0,0,0,10.012,22.638c8.186,5.717,20.023,4.711,27.263-2.074,1.883-1.764-.95-4.588-2.828-2.829a18.211,18.211,0,0,1-20.042,2.863c-6.732-3.363-10.491-10.587-10.532-17.962-.039-7.089,3.334-13.988,9.583-17.57a20.1,20.1,0,0,1,19.62.129A17.182,17.182,0,0,1,146.2,41.725c-.792,2.455,3.069,3.507,3.857,1.063Z"/><path class="c" d="M146.01,44.661c.471.034-.219-.087.2.023.178.047.358.084.534.141.1.032.51.227.207.073.165.084.329.169.486.267.072.044.464.328.2.117a5.005,5.005,0,0,1,.412.373,4.562,4.562,0,0,1,.372.413c-.234-.3.072.133.113.2a4.7,4.7,0,0,1,.261.491c-.16-.356.034.139.057.22a4.159,4.159,0,0,1,.123.55c-.057-.394-.006.159,0,.242,0,.2-.009.39-.02.586-.024.447.068-.153-.042.246-.089.326-.263.956-.321,1.091a6.842,6.842,0,0,1-1.064,1.637,5.874,5.874,0,0,1-1.734,1.338,8.011,8.011,0,0,1-2.148.886,11.785,11.785,0,0,1-1.275.282q-.213.033,0,0c-.106.013-.212.023-.318.032-.245.021-.489.031-.735.037a2,2,0,0,0,0,4c4.771-.117,9.592-2.7,11.213-7.38a7.458,7.458,0,0,0-.689-6.514,7.57,7.57,0,0,0-5.827-3.355,2.011,2.011,0,0,0-2,2,2.049,2.049,0,0,0,2,2Z"/><path class="c" d="M119.708,45.1a3.164,3.164,0,0,1-1.29,2.382,2.462,2.462,0,0,1-1.811.342,2.754,2.754,0,0,1-1.993-1.5,3.228,3.228,0,0,1,.8-3.714,2.556,2.556,0,0,1,3.474.191A2.846,2.846,0,0,1,119.708,45.1Z"/><path class="c" d="M131.867,47.584a3.169,3.169,0,0,1-1.29,2.382,2.461,2.461,0,0,1-1.812.343,2.759,2.759,0,0,1-1.992-1.5,3.23,3.23,0,0,1,.8-3.715,2.554,2.554,0,0,1,3.473.192A2.849,2.849,0,0,1,131.867,47.584Z"/><path class="c" d="M131.625,34.148a17.427,17.427,0,0,0,2.686,4.728,10.639,10.639,0,0,0,3.6,2.687,2.151,2.151,0,0,0,1.541.2,2,2,0,0,0,.478-3.656,10.46,10.46,0,0,1-1.915-1.148l.4.313a8.786,8.786,0,0,1-1.543-1.558l.312.405a15.033,15.033,0,0,1-1.787-3.229l.2.478c-.04-.095-.08-.19-.119-.285a2.2,2.2,0,0,0-.919-1.2,2,2,0,0,0-2.737.718,1.928,1.928,0,0,0-.2,1.541Z"/><path class="c" d="M132.544,31.889c-2.283,1.2-6.187,2.135-8.608,1.53l1.195,2.938c.77-1.376,1.61-3.289.324-4.65-1.486-1.572-3.6-.465-5.3,0a37.782,37.782,0,0,1-12.112,1.137c-2.572-.143-2.564,3.857,0,4a43.37,43.37,0,0,0,8.119-.28c1.268-.167,2.527-.383,3.773-.675q.969-.225,1.923-.5c.357-.1.711-.215,1.064-.33.142-.045.284-.092.425-.141.28-.1.283-.1.01,0l-.882-.514.149.135-.514-.882c-.2-.478.174-.436-.053-.035-.134.236-.249.483-.382.721a2.021,2.021,0,0,0,1.195,2.937,14.522,14.522,0,0,0,5.9-.1,19.326,19.326,0,0,0,5.794-1.834c2.278-1.2.259-4.655-2.019-3.454Z"/><path class="d" d="M47.1,32.89c.314,1.11,2.017,7.541,2.17,7.769.34.505,1.453.253,2.052.138a18.413,18.413,0,0,0,12.167-8.888,18.014,18.014,0,0,0,2.13-12.974,1.53,1.53,0,0,0-1.26-1.133c-3.934-.644-9.912-1.325-16.377,2.291-3.566,2-6.885,7.105-8.057,11.02C41.982,31.543,45.869,32.552,47.1,32.89Z"/><path class="c" d="M45.171,33.422c.466,1.664.9,3.336,1.36,5,.423,1.541.645,3.674,2.347,4.313a6.47,6.47,0,0,0,3.72-.172A19.025,19.025,0,0,0,56.953,40.9a21.355,21.355,0,0,0,10.592-13.91,20.378,20.378,0,0,0,.487-4.729c-.032-1.5-.091-3.578-.941-4.874-1.34-2.042-4.774-1.961-6.952-2.067a24.46,24.46,0,0,0-8.882,1.155,18.253,18.253,0,0,0-8.436,5.461,25.047,25.047,0,0,0-4.826,8.644,2.017,2.017,0,0,0,1.4,2.46c2.409.512,4.8,1.129,7.176,1.778,2.486.679,3.547-3.179,1.063-3.857-2.375-.649-4.767-1.266-7.176-1.778l1.4,2.46c1.285-4.125,4.074-8.3,8-10.281a21.794,21.794,0,0,1,13.022-1.781,7.383,7.383,0,0,1,1.043.152c-.277-.085-.216-.744-.134.142.025.273.111.55.146.825a15.67,15.67,0,0,1-.01,3.978,16.739,16.739,0,0,1-2.557,6.871,16.962,16.962,0,0,1-4.5,4.725,16.74,16.74,0,0,1-2.945,1.663,30.068,30.068,0,0,1-3.252.954c-.1.03-.451.035-.468.068.178-.345.9,1.756.91.924a3.16,3.16,0,0,0-.216-.721c-.224-.773-.435-1.549-.647-2.324-.408-1.493-.8-2.99-1.217-4.481C48.335,29.883,44.475,30.935,45.171,33.422Z"/><path class="e" d="M219.138,24.892c-.881.827-5.884,5.681-6.144,5.8-.579.27-1.441-.558-1.917-.984a19.294,19.294,0,0,1-6.121-14.552,18.942,18.942,0,0,1,4.853-12.543,1.99,1.99,0,0,1,2.2-.5c3.864,1.564,9.118,3.823,12.9,10.438,1.94,3.4,2.6,9.426,1.87,13.509a.978.978,0,0,1-1.268.769C223.334,26.114,220.236,25.2,219.138,24.892Z"/><path class="c" d="M217.724,23.478c-1.043.983-2.07,1.984-3.106,2.975-.564.539-1.128,1.079-1.7,1.614-.316.3-1.032.728-1.217,1.117.237-.5,1.414-.059,1.2-.517a2.394,2.394,0,0,0-.419-.372,18.148,18.148,0,0,1-1.4-1.412,15.875,15.875,0,0,1-2.14-3.167,17.805,17.805,0,0,1-1.955-7.159,17.992,17.992,0,0,1,1.165-7.577,16.6,16.6,0,0,1,1.751-3.3,12.633,12.633,0,0,1,1.044-1.351c.384-.432.309-.386.873-.148,3.757,1.591,7.191,3.609,9.725,6.893a16,16,0,0,1,3.128,7.019,23.237,23.237,0,0,1,.385,3.965c.011.665,0,1.332-.046,2-.016.231-.033.463-.058.693-.012.155-.031.31-.055.463q-.165.69.157-.093l1.009-.273a4.644,4.644,0,0,1-1.421-.389q-1.008-.316-2.019-.62c-.985-.3-1.971-.59-2.961-.87-2.482-.7-3.541,3.158-1.064,3.857,1.359.384,2.711.79,4.06,1.2,1.646.506,3.552,1.469,5.069.124,1.253-1.11,1.244-3.066,1.311-4.629a28.452,28.452,0,0,0-.3-5.192A21.727,21.727,0,0,0,217.9,2.688,31.34,31.34,0,0,0,214.439.971c-1.45-.623-2.854-1.324-4.455-.769-1.723.6-2.936,2.488-3.861,3.965a21.054,21.054,0,0,0-2.279,5.1,21.9,21.9,0,0,0,4.416,20.446c1.173,1.327,2.834,3.181,4.771,3a4.491,4.491,0,0,0,2.477-1.588c1.7-1.59,3.353-3.222,5.044-4.817C222.429,24.536,219.6,21.712,217.724,23.478Z"/><path class="d" d="M202.88,98.4c-.317,1.439-2.012,9.767-2.19,10.068-.4.67-1.835.431-2.607.329a23.528,23.528,0,0,1-16.177-10.433,23.036,23.036,0,0,1-3.687-16.342,1.921,1.921,0,0,1,1.458-1.568,30.563,30.563,0,0,1,20.986,2.054c4.418,2.145,8.891,7.5,10.891,12.215A.841.841,0,0,1,211,95.854C208.306,96.627,204.26,97.935,202.88,98.4Z"/><path class="c" d="M200.952,97.87c-.368,1.682-.707,3.37-1.062,5.054q-.3,1.411-.6,2.822a9.461,9.461,0,0,0-.458,1.981c.02.8-1.473-2.49.736-.8a5.983,5.983,0,0,0-.654-.028,14.347,14.347,0,0,1-1.81-.285,19.617,19.617,0,0,1-4.2-1.35,22.439,22.439,0,0,1-6.944-5.016,21.523,21.523,0,0,1-5.905-17.016c.082-.7.006-.756.417-.905a8.854,8.854,0,0,1,1.361-.28,31.476,31.476,0,0,1,3.82-.495,27.7,27.7,0,0,1,8.5.706A21.081,21.081,0,0,1,203.591,87a26.018,26.018,0,0,1,3.5,3.953,27.76,27.76,0,0,1,1.536,2.392c.194.34.381.684.558,1.032.116.226.227.454.335.683q.306.551.059.225l.273-1.009q.613-.423-.031-.16c-.17.049-.34.1-.509.151q-.531.158-1.059.32-1.173.358-2.342.73c-1.192.378-2.382.76-3.567,1.159-2.427.818-1.386,4.682,1.063,3.857,1.54-.518,3.089-1.012,4.64-1.5,1.662-.519,4.267-.771,5.2-2.418,1.05-1.862-.608-4.206-1.571-5.781a31.65,31.65,0,0,0-4.09-5.315c-5.818-6.091-14.689-8.482-22.936-7.687a43.7,43.7,0,0,0-4.985.779c-2.232.479-3.248,1.974-3.534,4.15a24.649,24.649,0,0,0,1.93,12.894,25.919,25.919,0,0,0,18.162,15.053c1.843.364,4.438.975,5.878-.624a6.4,6.4,0,0,0,1.016-2.964c.583-2.658,1.108-5.329,1.689-7.988C205.358,96.424,201.5,95.353,200.952,97.87Z"/></svg>