<?xml version="1.0" standalone="no"?>
<!DOCTYPE svg PUBLIC "-//W3C//DTD SVG 20010904//EN"
 "http://www.w3.org/TR/2001/REC-SVG-20010904/DTD/svg10.dtd">
<svg version="1.0" xmlns="http://www.w3.org/2000/svg"
 width="32.000000pt" height="32.000000pt" viewBox="0 0 32.000000 32.000000"
 preserveAspectRatio="xMidYMid meet">

<g transform="translate(0.000000,32.000000) scale(0.100000,-0.100000)"
fill="#000000" stroke="none">
<path d="M17 314 c-4 -4 -7 -74 -7 -156 0 -121 3 -150 15 -154 15 -6 211 122
219 144 10 22 -4 37 -97 99 -99 67 -119 77 -130 67z"/>
<path d="M274 307 c-2 -7 -3 -78 -2 -157 3 -129 5 -145 21 -148 16 -3 17 10
17 157 0 138 -2 161 -15 161 -9 0 -18 -6 -21 -13z"/>
</g>
</svg>
