<?xml version="1.0" standalone="no"?>
<!DOCTYPE svg PUBLIC "-//W3C//DTD SVG 20010904//EN"
 "http://www.w3.org/TR/2001/REC-SVG-20010904/DTD/svg10.dtd">
<svg version="1.0" xmlns="http://www.w3.org/2000/svg"
 width="32.000000pt" height="32.000000pt" viewBox="0 0 32.000000 32.000000"
 preserveAspectRatio="xMidYMid meet">

<g transform="translate(0.000000,32.000000) scale(0.100000,-0.100000)"
fill="#000000" stroke="none">
<path d="M14 307 c-2 -7 -3 -78 -2 -157 3 -121 5 -145 18 -145 13 0 15 25 18
158 2 137 0 157 -13 157 -9 0 -18 -6 -21 -13z"/>
<path d="M190 257 c-104 -71 -120 -88 -104 -114 15 -24 194 -145 208 -140 15
5 16 309 0 314 -6 2 -53 -25 -104 -60z"/>
</g>
</svg>
