<?xml version="1.0" standalone="no"?>
<!DOCTYPE svg PUBLIC "-//W3C//DTD SVG 20010904//EN"
 "http://www.w3.org/TR/2001/REC-SVG-20010904/DTD/svg10.dtd">
<svg version="1.0" xmlns="http://www.w3.org/2000/svg"
 width="32.000000pt" height="32.000000pt" viewBox="0 0 32.000000 32.000000"
 preserveAspectRatio="xMidYMid meet">

<g transform="translate(0.000000,32.000000) scale(0.100000,-0.100000)"
fill="#000000" stroke="none">
<path d="M161 260 l-44 -40 85 0 c64 0 89 -4 98 -15 10 -12 10 -18 -1 -32 -11
-13 -11 -17 -1 -20 23 -9 7 -42 -28 -56 -11 -4 -9 -6 6 -6 29 -1 52 42 34 64
-8 10 -9 15 -1 15 6 0 11 9 11 20 0 11 -5 20 -11 20 -6 0 -9 6 -6 14 7 18 -11
36 -29 29 -10 -3 -12 0 -8 10 3 8 -1 19 -8 23 -29 19 -55 12 -97 -26z m91 6
c-2 -9 7 -20 20 -26 17 -6 4 -9 -52 -9 l-75 0 34 29 c37 31 78 35 73 6z"/>
<path d="M10 205 c-11 -20 -11 -27 0 -40 8 -10 9 -15 1 -15 -6 0 -11 -9 -11
-20 0 -11 5 -20 11 -20 6 0 9 -6 6 -14 -7 -18 11 -36 29 -29 10 3 12 0 8 -10
-3 -8 1 -19 8 -23 28 -18 53 -13 82 14 17 16 40 34 51 40 16 9 1 11 -71 12
-69 0 -95 4 -104 15 -10 12 -10 18 1 32 11 13 11 17 2 20 -29 10 -3 48 38 56
20 4 19 4 -7 6 -23 1 -34 -5 -44 -24z m131 -145 c-37 -31 -78 -35 -73 -6 2 9
-7 20 -20 26 -17 6 -4 9 52 9 l75 0 -34 -29z"/>
<path d="M50 160 l0 -50 110 0 110 0 0 50 0 50 -72 -2 -73 -2 68 -3 67 -4 0
-39 0 -40 -100 0 -100 0 0 39 c0 33 4 40 23 44 19 4 18 4 -5 6 -27 1 -28 -1
-28 -49z"/>
<path d="M77 159 c6 -22 7 -22 13 -3 7 19 7 19 13 -1 6 -20 6 -20 4 0 -1 11
-10 21 -19 23 -13 2 -15 -2 -11 -19z"/>
<path d="M121 158 c1 -17 2 -19 6 -5 2 9 9 17 15 17 5 0 8 -6 5 -14 -4 -10 0
-14 13 -13 30 2 20 33 -12 35 -23 2 -28 -1 -27 -20z"/>
<path d="M190 160 c0 -11 2 -20 4 -20 2 0 6 9 9 20 3 11 1 20 -4 20 -5 0 -9
-9 -9 -20z"/>
<path d="M227 160 c3 -11 7 -20 8 -20 1 0 5 9 8 20 3 12 0 20 -8 20 -8 0 -11
-8 -8 -20z"/>
</g>
</svg>
